<svg width="109" height="113" viewBox="0 0 109 113" fill="none" xmlns="http://www.w3.org/2000/svg">
<path d="M63.4074 23.9522C67.604 23.7912 72.6258 23.5999 76.4098 23.7106C82.277 16.042 85.2458 2.48612 97.2116 2.93899C98.7917 2.98931 101.086 3.26103 99.4357 5.27379C98.8118 5.89774 98.3488 6.55189 97.0506 6.5217C94.1925 6.46131 89.6034 7.84005 86.1213 13.1034C76.4098 27.8066 66.5875 43.6168 58.8485 54.0127C44.1151 73.8283 61.6261 72.4999 67.1209 63.7041C73.451 52.0503 70.5627 42.2985 87.2183 39.8026C88.5367 39.5812 89.8651 39.3699 91.1935 39.2089C96.7084 38.5145 103.089 38.2126 107.275 42.5299C107.527 42.7916 107.758 43.0734 107.849 43.4256C107.94 43.7778 107.809 44.1905 107.497 44.3515C106.501 44.8547 105.414 43.5866 104.447 44.0395C102.767 44.8446 96.004 50.5407 94.0717 52.3019C85.1049 60.4837 73.5819 85.0494 72.978 87.1226C76.1079 90.2625 74.7895 95.6164 76.8023 99.3299C80.697 106.636 87.7919 84.3752 88.9694 82.2215C89.8751 80.0175 95.5411 69.36 98.0067 73.5868C99.5666 76.7468 93.9912 79.2527 92.2301 81.044C87.3089 86.3477 87.6712 94.127 84.7527 100.356C83.2028 103.667 81.1398 104.503 77.8489 102.993C72.5352 100.558 74.5983 93.7143 71.861 89.5882C70.3313 93.7848 59.563 109.233 48.5633 110.933C35.1986 114.627 18.7644 110.933 19.5594 94.1672C22.0553 83.3486 32.7833 76.2939 43.2395 74.5428C56.8961 72.3691 60.0863 76.5153 70.2709 84.6569C81.9549 66.2301 79.7308 57.3237 99.2747 43.6571C102.203 41.6141 98.0469 41.8355 96.1348 41.6242C62.2702 39.7624 81.0995 62.899 60.2473 70.2859C43.1288 73.8484 47.6575 61.007 57.0571 51.1848C62.874 44.3012 70.8043 33.2411 75.5342 25.9046C71.4081 25.9851 66.4064 26.5084 61.9481 26.5889C58.7579 31.0874 56.4231 34.4085 54.2292 38.122C56.1916 48.3166 49.8816 55.0795 40.9249 53.4592C32.3606 63.7243 9.66674 68.8065 0.921304 58.3099C-0.739222 55.3311 -0.376925 50.8627 3.84987 50.9131C7.91564 50.3596 6.77843 56.2569 11.6292 58.471C20.2136 61.2284 31.7769 60.6146 39.053 53.1573C19.3884 49.323 25.4266 21.6174 36.4465 11.5737C45.5039 3.43211 59.1504 1.66089 70.6936 0.161382C76.1179 -0.77455 75.3933 2.49618 73.0988 6.46131C69.3551 12.9525 66.8291 18.9102 63.3973 23.9522H63.4074ZM70.0998 6.33048C69.7677 2.48612 63.7193 4.60958 61.616 5.15302C38.4995 11.1208 25.6883 21.1343 30.9718 43.798C32.9443 49.3431 37.9259 51.3055 40.7236 51.537C45.6247 46.3642 48.211 42.2381 52.0252 37.2867C51.9749 36.6627 51.8843 36.1193 51.8642 35.7268C51.8441 35.1431 51.8038 34.5594 51.7233 33.9757C51.5925 33.0096 51.361 32.0636 50.9887 31.1578C50.415 29.7389 49.4891 28.5211 48.3821 27.4745C46.8625 26.0354 44.578 24.8177 44.095 22.6137C43.9641 22.0199 43.9138 21.5067 44.6183 21.396C45.1517 21.3155 45.7354 21.2551 46.2788 21.2853C47.5368 21.3658 48.7344 21.8992 49.8011 22.5332C50.8679 23.1672 51.3409 23.8415 52.0051 24.8881C52.9612 26.3977 53.2429 27.0921 53.2329 29.1048C53.2329 31.0773 53.5549 32.9593 53.6254 35.1431C54.833 33.7543 55.93 32.285 56.9665 30.7654C57.5502 29.9099 58.1038 29.0445 58.6472 28.1588C58.939 27.6858 59.2611 27.2028 59.5328 26.7097C59.6838 26.4379 59.6435 26.3876 59.3315 26.287C59.1403 26.2266 58.9189 26.2165 58.7176 26.2266C58.3755 26.2467 58.0333 26.297 57.7012 26.2266C57.1678 26.126 56.7149 25.6932 56.5942 25.1598C56.564 25.0491 56.5539 24.9183 56.5741 24.8076C56.6244 24.5258 56.876 24.3145 57.1477 24.2239C57.4194 24.1333 60.5392 23.9622 61.304 23.9421C61.9481 22.9257 62.6325 21.9193 63.2765 20.9029C64.7358 18.558 66.1246 16.1729 67.3624 13.7072C68.0065 12.4291 68.6103 11.1208 69.1236 9.7723C69.3551 9.16847 69.5664 8.55458 69.7375 7.94069C69.8683 7.46769 70.1501 6.80348 70.0998 6.31036V6.33048ZM52.5687 39.9133C49.9823 43.2445 47.4361 46.9982 42.6055 51.9295C49.8816 53.1472 53.2731 46.334 52.5687 39.9133ZM66.3259 84.0934C52.4278 73.1238 21.6125 74.9152 22.8 97.5285C23.5044 107.492 34.6753 107.019 42.213 106.626C54.8531 105.771 62.3708 95.9586 69.2142 86.5187L66.3259 84.0934Z" fill="#7D2B18"/>
<path d="M104.931 23.9826C111.11 23.5699 109.611 31.8625 104.71 31.6411C101.087 30.3831 102.747 24.3046 104.931 23.9826Z" fill="#7D2B18"/>
</svg>
